<svg xmlns="http://www.w3.org/2000/svg" xmlns:xlink="http://www.w3.org/1999/xlink" version="1.1" id="Layer_1" x="0px" y="0px" width="100px" height="100px" viewBox="0 0 100 100" enable-background="new 0 0 100 100" xml:space="preserve">
<g>
	<polygon points="99.603,45.379 78.369,65.564 56.213,65.566 70.14,52.373 32.209,52.373 32.209,45.379 32.209,38.386 70.14,38.386    56.213,25.193 78.369,25.193  "/>
	<path d="M56.213,65.695h-0.325l13.926-13.193H32.08V38.255h37.734L55.888,25.063h22.533l0.037,0.036l21.333,20.28l-0.1,0.094   L78.489,65.628c-0.005,0.01-0.013,0.018-0.026,0.024l-0.005,0.006l-0.001-0.003c-0.082,0.038-0.325,0.038-1.04,0.039L56.213,65.695   z M32.34,52.242h38.125L56.54,65.436c2.664,0,20.699,0,21.776-0.002l21.097-20.055L78.316,25.322H56.54l13.925,13.193H32.34V52.242   z"/>
</g>
<g>
	<polygon points="47.131,78.661 0.146,78.661 0.146,12.097 47.131,12.097 47.131,21.188 42.975,21.188 42.975,16.253 4.302,16.253    4.302,74.506 42.975,74.506 42.975,69.569 47.131,69.569  "/>
</g>
</svg>